# File created by Blade
# Date/Time:  Thu Sep 25 17:14:50 2014
# Frame Rate: 120.000 fps
#------------------------------------------------------
:FULLY-SPECIFIED
:DEGREES
152
root 8.773207 31.069241 -0.239948 6.038321 -38.842463 1.829688
Spine -9.088883 1.941554 -1.791237
Head -2.660626 -19.045299 8.053214
LeftShoulder -9.229900 19.472415 13.830297
LeftArm 34.297012 39.198230 -67.559129
LeftForeArm 5.537972 -0.000000 22.178973
LeftHand -27.241928 -0.000000 -4.090006
LeftHandThumb1 -26.253704 0.000000 33.147579
RightShoulder -18.735168 9.100118 -24.296672
RightArm -13.209537 -29.232150 99.801182
RightForeArm -7.102063 -0.000000 21.808268
RightHand -2.042456 -0.000000 17.113907
RightHandThumb1 -24.326973 -0.000000 -32.862282
LeftUpLeg -8.726549 -23.555844 11.440120
LeftLeg 41.416845 -0.000000 -0.000000
LeftFoot -9.982420 -11.125950 -16.984693
LeftToeBase -32.747723 -0.000000 0.000000
RightUpLeg -26.782516 8.605930 -21.464688
RightLeg 25.934210 -0.000000 -0.000000
RightFoot -10.079333 16.398212 2.851879
RightToeBase -8.003905 -0.000000 0.000000
153
root 9.131814 30.999464 -0.205071 5.990388 -39.853998 1.836112
Spine -8.942678 1.797592 -1.671069
Head -2.766897 -19.274379 8.220904
LeftShoulder -8.957856 19.340725 13.988541
LeftArm 34.936993 39.732743 -67.199581
LeftForeArm 5.584313 -0.000000 22.599457
LeftHand -27.361509 -0.000000 -3.796277
LeftHandThumb1 -26.253704 0.000000 33.147579
RightShoulder -18.810874 8.998715 -24.136885
RightArm -13.243315 -29.481048 99.886549
RightForeArm -7.131059 -0.000000 21.920391
RightHand -2.006779 -0.000000 17.328109
RightHandThumb1 -24.326973 -0.000000 -32.862282
LeftUpLeg -8.538143 -23.505084 10.848531
LeftLeg 41.240182 -0.000000 -0.000000
LeftFoot -11.391387 -11.561232 -16.888949
LeftToeBase -33.121735 -0.000000 0.000000
RightUpLeg -27.381305 8.626213 -22.036478
RightLeg 25.529162 -0.000000 -0.000000
RightFoot -8.901652 17.283650 3.319177
RightToeBase -8.626956 -0.000000 0.000000
154
root 9.508241 30.932262 -0.177419 6.026653 -40.881768 1.815494
Spine -8.822740 1.587565 -1.517910
Head -2.929251 -19.432048 8.505792
LeftShoulder -8.777964 19.117467 14.153526
LeftArm 35.536360 40.300110 -66.865418
LeftForeArm 5.615500 -0.000000 23.011711
LeftHand -27.375486 -0.000000 -3.554399
LeftHandThumb1 -26.253704 0.000000 33.147579
RightShoulder -18.851314 8.903301 -23.943029
RightArm -13.182410 -29.751415 99.845307
RightForeArm -7.007853 0.000000 22.100673
RightHand -2.003948 -0.000000 17.552161
RightHandThumb1 -24.326973 -0.000000 -32.862282
LeftUpLeg -8.537746 -23.296089 10.256416
LeftLeg 41.472370 -0.000000 -0.000000
LeftFoot -12.957221 -11.698928 -17.051981
LeftToeBase -32.083037 -0.000000 0.000000
RightUpLeg -28.043330 8.487246 -22.574123
RightLeg 25.006005 -0.000000 -0.000000
RightFoot -7.503292 18.182393 3.817907
RightToeBase -9.334847 -0.000000 0.000000
155
root 9.881413 30.868296 -0.149937 6.044999 -41.947720 1.697008
Spine -8.554475 1.358699 -1.279566
Head -3.173761 -19.518447 8.820833
LeftShoulder -8.615483 19.037061 14.282578
LeftArm 36.416580 40.886288 -66.237409
LeftForeArm 5.291278 -0.000000 23.501940
LeftHand -27.556026 -0.000000 -3.034020
LeftHandThumb1 -26.253704 0.000000 33.147579
RightShoulder -18.925921 8.783107 -23.718033
RightArm -13.025659 -30.313521 99.708998
RightForeArm -6.617924 -0.000000 22.419469
RightHand -2.299790 -0.000000 17.524904
RightHandThumb1 -24.326973 -0.000000 -32.862282
LeftUpLeg -8.411675 -22.926159 9.632136
LeftLeg 41.694784 -0.000000 -0.000000
LeftFoot -14.749211 -11.604853 -16.936428
LeftToeBase -30.306973 -0.000000 0.000000
RightUpLeg -28.593139 8.472867 -23.000861
RightLeg 24.339203 -0.000000 -0.000000
RightFoot -5.975860 19.042795 4.192985
RightToeBase -10.449575 -0.000000 0.000000
156
root 10.234165 30.812660 -0.121324 6.084263 -43.025119 1.459294
Spine -8.282918 1.134355 -0.974022
Head -3.241525 -19.615298 9.061921
LeftShoulder -8.389211 18.923674 14.436655
LeftArm 37.124246 41.400399 -65.635139
LeftForeArm 5.142183 -0.000000 24.032873
LeftHand -27.599518 0.000000 -2.690734
LeftHandThumb1 -26.253704 0.000000 33.147579
RightShoulder -18.923942 8.645298 -23.468929
RightArm -12.854155 -30.442978 99.537466
RightForeArm -6.934127 -0.000000 22.537598
RightHand -2.002334 -0.000000 17.322368
RightHandThumb1 -24.326973 -0.000000 -32.862282
LeftUpLeg -8.156450 -22.360854 9.027044
LeftLeg 41.738592 -0.000000 -0.000000
LeftFoot -16.599124 -11.371279 -16.826477
LeftToeBase -28.399665 -0.000000 0.000000
RightUpLeg -29.010391 8.763764 -23.370907
RightLeg 23.521497 -0.000000 -0.000000
RightFoot -4.352624 19.616938 4.862274
RightToeBase -11.276141 -0.000000 0.000000
157
root 10.614529 30.765616 -0.092151 6.077875 -44.241791 1.400305
Spine -7.997471 0.965266 -0.815484
Head -3.448782 -19.683373 9.377479
LeftShoulder -8.246557 18.856923 14.598654
LeftArm 37.884605 41.699529 -65.036592
LeftForeArm 5.780345 -0.000000 24.395966
LeftHand -27.056795 -0.000000 -3.279500
LeftHandThumb1 -26.253704 0.000000 33.147579
RightShoulder -18.919174 8.523479 -23.214464
RightArm -12.640525 -30.519171 99.323842
RightForeArm -7.165314 -0.000000 22.773606
RightHand -2.175791 -0.000000 17.339952
RightHandThumb1 -24.326973 -0.000000 -32.862282
LeftUpLeg -8.013521 -21.616233 8.207970
LeftLeg 41.779950 -0.000000 -0.000000
LeftFoot -18.635746 -10.663902 -16.709575
LeftToeBase -26.128804 -0.000000 0.000000
RightUpLeg -29.521707 8.699666 -23.767271
RightLeg 22.543673 -0.000000 -0.000000
RightFoot -2.387225 20.461270 5.408462
RightToeBase -12.355252 -0.000000 0.000000
